<?xml version="1.0" encoding="UTF-8"?>
<svg width="20px" height="20px" viewBox="0 0 20 20" version="1.1" xmlns="http://www.w3.org/2000/svg" xmlns:xlink="http://www.w3.org/1999/xlink">
    <!-- Generator: Sketch 51.3 (57544) - http://www.bohemiancoding.com/sketch -->
    <title>Icon history</title>
    <desc>Created with Sketch.</desc>
    <defs></defs>
    <g id="Icon-history" stroke="none" stroke-width="1" fill="none" fill-rule="evenodd">
        <path d="M11.3836122,1.00348946 C16.0054346,1.13346426 19.8684504,5.05270433 19.9965606,9.74179514 C20.1345254,14.8308084 16.1039809,19 11.1273917,19 C9.06777362,19 7.18553889,18.2901376 5.68763482,17.0903703 C5.22446711,16.7304401 5.19490321,16.0205777 5.60879776,15.6006591 C5.96356452,15.2407289 6.51542391,15.2107347 6.90960919,15.5206746 C8.07245578,16.4504943 9.54079596,17.0003877 11.1273917,17.0003877 C14.9706982,17.0003877 18.0749073,13.8110061 18.0256342,9.90176412 C17.976361,6.18248527 14.8918612,3.05309205 11.225938,3.00310175 C7.36292227,2.95311144 4.22914927,6.10250078 4.22914927,10.0017447 L5.99312841,10.0017447 C6.43658685,10.0017447 6.65338876,10.54164 6.34789517,10.85158 L3.59845282,13.6510371 C3.40136017,13.8509984 3.09586658,13.8509984 2.89877394,13.6510371 L0.149331589,10.85158 C-0.166016638,10.54164 0.0507852679,10.0017447 0.494243711,10.0017447 L2.25822285,10.0017447 C2.25822285,4.95272372 6.36760443,0.863516604 11.3836122,1.00348946 Z M10.6324168,6 C10.978138,6 11.2648336,6.32856106 11.2648336,6.71510349 L11.2648336,10.0007141 L13.6933142,11.653183 C13.9884421,11.8561177 14.0896288,12.3006415 13.9125521,12.6485297 C13.7354754,12.9867543 13.347593,13.1027171 13.044033,12.8997823 L10.413179,11.1120236 C10.1602123,10.9380795 10,10.619182 10,10.2809574 L10,6.72476705 C10,6.32856106 10.2866956,6 10.6324168,6 Z" id="Combined-Shape" ></path>
    </g>
</svg>