<?xml version="1.0" encoding="UTF-8"?>
<svg width="28px" height="25px" viewBox="0 0 28 25" version="1.1" xmlns="http://www.w3.org/2000/svg" xmlns:xlink="http://www.w3.org/1999/xlink">
    <!-- Generator: Sketch 51.3 (57544) - http://www.bohemiancoding.com/sketch -->
    <title>Logo</title>
    <desc>Created with Sketch.</desc>
    <defs></defs>
    <g id="Logo" stroke="none" stroke-width="1" fill="none" fill-rule="evenodd">
        <path d="M8.66350879,0 L28,0 L28,19.6910629 C27.5856081,21.0083883 26.8667223,22.1317713 25.8433425,23.0612118 C24.8199626,23.9906523 23.5903432,24.636915 22.154484,25 L0,25 L12.1024854,10.7540931 L21.710121,10.7540931 L24.4080514,7.26424166 L10.1315441,7.26424166 L6.61021074,11.1558814 L6.61021074,6.20098248 C6.75812522,5.59040565 7.0170476,5.09202675 7.38697789,4.7058458 C7.75690817,4.31966484 8.25777442,4.02487834 8.88957664,3.82148627 L24.4080514,3.82148627 L24.4080514,18.4219219 C24.2607163,19.1894548 23.9655216,19.7987057 23.5224674,20.2496746 C23.0794132,20.7006435 22.4752977,21.0067679 21.710121,21.1680479 L3.04488754,21.1680479 L3.04488754,5.77891666 C3.41742868,4.25703025 4.04883106,3.03825593 4.93909469,2.12259369 C5.82935832,1.20693144 7.07082969,0.499400214 8.66350879,0 Z" id="Path-2" fill="#FFFFFF"></path>
        <polygon id="Path-3" fill-opacity="0.843070652" fill="#FFFFFF" points="11 18 13.8969102 14 19 14 15.8758715 18"></polygon>
    </g>
</svg>