<?xml version="1.0" encoding="iso-8859-1"?>
<!-- Generator: Adobe Illustrator 16.0.0, SVG Export Plug-In . SVG Version: 6.00 Build 0)  -->
<!DOCTYPE svg PUBLIC "-//W3C//DTD SVG 1.1//EN" "http://www.w3.org/Graphics/SVG/1.1/DTD/svg11.dtd">
<svg version="1.1" id="Capa_1" xmlns="http://www.w3.org/2000/svg" xmlns:xlink="http://www.w3.org/1999/xlink" x="0px" y="0px"
	 width="502.341px" height="502.341px" viewBox="0 0 502.341 502.341" style="enable-background:new 0 0 502.341 502.341;"
	 xml:space="preserve">
<g>
	<g id="Layer_8_48_">
		<path d="M217.55,287.455c-1.423,6.774-2.196,13.778-2.196,20.958c0,2.386,0.196,4.717,0.357,7.06H14.009
			C6.272,315.473,0,309.201,0,301.463V86.578C0,78.841,6.272,72.57,14.009,72.57h436.316c7.737,0,14.009,6.271,14.009,14.008v167.29
			l-28.02-10.586V142.617c-3.885,1.62-8.14,2.522-12.606,2.522c-18.102,0-32.788-14.676-32.788-32.78
			c0-4.153,0.81-8.115,2.223-11.773H70.356c1.407,3.658,2.213,7.614,2.213,11.773c0,18.104-14.676,32.78-32.78,32.78
			c-4.153,0-8.113-0.807-11.773-2.213v100.047c3.661-1.401,7.615-2.213,11.773-2.213c18.104,0,32.78,14.673,32.78,32.78
			c0,4.985-1.144,9.691-3.133,13.915H217.55L217.55,287.455z M257.405,226.253H203.49c0-12.895,7.705-23.951,18.751-28.903
			c-7.084-3.961-11.88-11.527-11.88-20.222c0-12.799,10.373-23.171,23.171-23.171c12.791,0,23.168,10.377,23.168,23.171
			c0,8.147-4.213,15.297-10.576,19.431c10.33,3.817,18.091,12.854,20.144,23.916c8.438-4.892,17.627-8.577,27.371-10.881
			c1.051-4.511,1.598-9.195,1.598-14.019c0-20.615-10.003-38.843-25.377-50.247h29.776V114.51H164.689v30.818h30.802
			c-15.382,11.404-25.391,29.632-25.391,50.247c0,18.837,8.367,35.695,21.541,47.163h-26.953v30.819h56.957
			C228.661,254.433,241.214,238.032,257.405,226.253z M317.004,375.336c-36.443,0-65.978-29.538-65.978-65.982
			c0-36.443,29.534-65.978,65.978-65.978c18.988,0,36.061,8.063,48.088,20.901c5.583-3.371,11.523-6.184,17.774-8.34
			c-15.553-19.149-39.269-31.404-65.862-31.404c-46.855-0.005-84.841,37.97-84.841,84.821c0,46.857,37.973,84.838,84.841,84.838
			c5.299,0,10.463-0.547,15.507-1.477c-3.315-5.604-6.071-11.552-8.173-17.812C321.92,375.165,319.478,375.336,317.004,375.336z
			 M332.682,260.106h-17.303l-0.733,3.819c-1,5.253-4.086,12.225-19.232,12.225h-4.719v18.32h4.719
			c6.543,0,12.027-0.68,16.534-2.048v66.819h8.604c-0.725-4.674-1.204-9.428-1.204-14.298c0-17.574,4.912-33.977,13.316-48.072
			v-36.766H332.682L332.682,260.106z M502.341,344.933c0,46.852-37.975,84.838-84.828,84.838c-46.861,0-84.843-37.976-84.843-84.838
			c0-46.856,37.981-84.826,84.843-84.826C464.361,260.106,502.341,298.081,502.341,344.933z M483.496,344.933
			c0-36.432-29.537-65.971-65.972-65.971c-36.441,0-65.974,29.539-65.974,65.971c0,36.444,29.532,65.981,65.974,65.981
			C453.959,410.914,483.496,381.377,483.496,344.933z M415.172,299.499c-1.013,5.248-4.094,12.229-19.245,12.229h-4.707v18.321
			h4.707c6.555,0,12.032-0.677,16.547-2.036v66.812h20.723v-99.141h-17.301L415.172,299.499z"/>
	</g>
</g>
<g>
</g>
<g>
</g>
<g>
</g>
<g>
</g>
<g>
</g>
<g>
</g>
<g>
</g>
<g>
</g>
<g>
</g>
<g>
</g>
<g>
</g>
<g>
</g>
<g>
</g>
<g>
</g>
<g>
</g>
</svg>
