<?xml version="1.0" encoding="UTF-8"?>
<svg width="20px" height="20px" viewBox="0 0 20 20" version="1.1" xmlns="http://www.w3.org/2000/svg" xmlns:xlink="http://www.w3.org/1999/xlink">
    <!-- Generator: Sketch 51.3 (57544) - http://www.bohemiancoding.com/sketch -->
    <title>Icon search</title>
    <desc>Created with Sketch.</desc>
    <defs></defs>
    <g id="Icon-search" stroke="none" stroke-width="1" fill="none" fill-rule="evenodd">
        <path d="M14.6651027,12.8978129 L13.7383145,12.8978129 L13.4098327,12.5812482 C14.8176121,10.9398017 15.5449648,8.70039976 15.1460939,6.32030238 C14.5947137,3.06085868 11.8730068,0.457993571 8.58818825,0.0593565722 C3.62576587,-0.550323544 -0.55064635,3.62364033 0.0593913892,8.58315359 C0.458262219,11.8660465 3.06265411,14.5861578 6.32400971,15.1372148 C8.7055032,15.5358518 10.9462187,14.8089255 12.588628,13.4019714 L12.9053784,13.7302607 L12.9053784,14.6565055 L17.8912638,19.639468 C18.3722551,20.1201773 19.1582652,20.1201773 19.6392565,19.639468 C20.1202478,19.1587587 20.1202478,18.3732093 19.6392565,17.8925 L14.6651027,12.8978129 Z M7.62620566,12.8978129 C4.70506341,12.8978129 2.34703291,10.5411647 2.34703291,7.62173494 C2.34703291,4.70230515 4.70506341,2.34565701 7.62620566,2.34565701 C10.5473479,2.34565701 12.9053784,4.70230515 12.9053784,7.62173494 C12.9053784,10.5411647 10.5473479,12.8978129 7.62620566,12.8978129 Z" id="Shape" ></path>
    </g>
</svg>