<?xml version="1.0" encoding="UTF-8"?>
<svg width="25px" height="25px" viewBox="0 0 25 25" version="1.1" xmlns="http://www.w3.org/2000/svg" xmlns:xlink="http://www.w3.org/1999/xlink">
    <!-- Generator: Sketch 51.3 (57544) - http://www.bohemiancoding.com/sketch -->
    <title>Icon table settings</title>
    <desc>Created with Sketch.</desc>
    <defs></defs>
    <g id="Icon-table-settings" stroke="none" stroke-width="1" fill="none" fill-rule="evenodd">
        <path d="M20.5227415,13.4505253 C20.5659197,13.1168124 20.5983034,12.7830994 20.5983034,12.4285294 C20.5983034,12.0739594 20.5659197,11.7402465 20.5227415,11.4065335 L22.8003934,9.68582618 C23.00549,9.52939824 23.0594628,9.24782795 22.9299281,9.0184003 L20.7710163,5.41012912 C20.6738653,5.24327265 20.4903578,5.14941588 20.2960557,5.14941588 C20.2312884,5.14941588 20.166521,5.15984441 20.1125482,5.18070147 L17.4247031,6.22355441 C16.863386,5.80641324 16.2588907,5.46227177 15.6004226,5.20155853 L15.1902294,2.43799824 C15.1578457,2.18771353 14.93116,2 14.661296,2 L10.3434725,2 C10.0736085,2 9.84692277,2.18771353 9.81453909,2.43799824 L9.40434586,5.20155853 C8.74587777,5.46227177 8.14138247,5.81684177 7.58006541,6.22355441 L4.89222026,5.18070147 C4.82745291,5.15984441 4.76268556,5.14941588 4.6979182,5.14941588 C4.5144107,5.14941588 4.3309032,5.24327265 4.23375217,5.41012912 L2.07484041,9.0184003 C1.93451114,9.24782795 1.9992785,9.52939824 2.20437511,9.68582618 L4.48202703,11.4065335 C4.43884879,11.7402465 4.40646512,12.0843879 4.40646512,12.4285294 C4.40646512,12.7726709 4.43884879,13.1168124 4.48202703,13.4505253 L2.20437511,15.1712327 C1.9992785,15.3276606 1.9453057,15.6092309 2.07484041,15.8386585 L4.23375217,19.4469297 C4.3309032,19.6137862 4.5144107,19.707643 4.70871276,19.707643 C4.77348012,19.707643 4.83824747,19.6972144 4.89222026,19.6763574 L7.58006541,18.6335044 C8.14138247,19.0506456 8.74587777,19.3947871 9.40434586,19.6555003 L9.81453909,22.4190606 C9.84692277,22.6693453 10.0736085,22.8570588 10.3434725,22.8570588 L14.661296,22.8570588 C14.93116,22.8570588 15.1578457,22.6693453 15.1902294,22.4190606 L15.6004226,19.6555003 C16.2588907,19.3947871 16.863386,19.0402171 17.4247031,18.6335044 L20.1125482,19.6763574 C20.1773156,19.6972144 20.2420829,19.707643 20.3068503,19.707643 C20.4903578,19.707643 20.6738653,19.6137862 20.7710163,19.4469297 L22.9299281,15.8386585 C23.0594628,15.6092309 23.00549,15.3276606 22.8003934,15.1712327 L20.5227415,13.4505253 Z M18.3854188,11.6672468 C18.428597,11.9905312 18.4393916,12.2095303 18.4393916,12.4285294 C18.4393916,12.6475285 18.4178025,12.8769562 18.3854188,13.1898121 L18.234295,14.3682359 L19.1950107,15.0982329 L20.3608231,15.9742294 L19.605204,17.2360815 L18.234295,16.7042265 L17.1116609,16.2662282 L16.1401506,16.9753682 C15.6759845,17.3090812 15.2334076,17.5593659 14.7908307,17.7366509 L13.6466075,18.1850777 L13.4738945,19.3635015 L13.2580034,20.771353 L11.7467651,20.771353 L11.5416685,19.3635015 L11.3689556,18.1850777 L10.2247323,17.7366509 C9.7605663,17.5489374 9.32878395,17.3090812 8.89700159,16.9962253 L7.91469674,16.2662282 L6.7704735,16.714655 L5.39956453,17.24651 L4.64394541,15.9846579 L5.80975776,15.1086615 L6.7704735,14.3786644 L6.61934968,13.2002406 C6.586966,12.8769562 6.56537688,12.6371 6.56537688,12.4285294 C6.56537688,12.2199588 6.586966,11.9801027 6.61934968,11.6672468 L6.7704735,10.4888229 L5.80975776,9.75882589 L4.64394541,8.88282942 L5.39956453,7.62097736 L6.7704735,8.15283236 L7.89310762,8.59083059 L8.86461792,7.88169059 C9.32878395,7.54797765 9.77136086,7.29769294 10.2139378,7.12040794 L11.358161,6.67198118 L11.5308739,5.49355735 L11.7467651,4.08570588 L13.2472088,4.08570588 L13.4523054,5.49355735 L13.6250184,6.67198118 L14.7692416,7.12040794 C15.2334076,7.30812147 15.66519,7.54797765 16.0969723,7.86083353 L17.0792772,8.59083059 L18.2235004,8.14240383 L19.5944094,7.61054883 L20.3500285,8.87240089 L19.1950107,9.75882589 L18.234295,10.4888229 L18.3854188,11.6672468 Z M12.5023842,8.25711765 C10.1167867,8.25711765 8.18456071,10.1238244 8.18456071,12.4285294 C8.18456071,14.7332344 10.1167867,16.5999412 12.5023842,16.5999412 C14.8879817,16.5999412 16.8202078,14.7332344 16.8202078,12.4285294 C16.8202078,10.1238244 14.8879817,8.25711765 12.5023842,8.25711765 Z M12.5023842,14.5142353 C11.3149828,14.5142353 10.3434725,13.5756677 10.3434725,12.4285294 C10.3434725,11.2813912 11.3149828,10.3428235 12.5023842,10.3428235 C13.6897857,10.3428235 14.661296,11.2813912 14.661296,12.4285294 C14.661296,13.5756677 13.6897857,14.5142353 12.5023842,14.5142353 Z" id="Shape" fill="#2B4575" fill-rule="nonzero"></path>
    </g>
</svg>