<?xml version="1.0" encoding="UTF-8"?>
<svg width="25px" height="25px" viewBox="0 0 25 25" version="1.1" xmlns="http://www.w3.org/2000/svg" xmlns:xlink="http://www.w3.org/1999/xlink">
    <!-- Generator: Sketch 51.3 (57544) - http://www.bohemiancoding.com/sketch -->
    <title>Icon table area</title>
    <desc>Created with Sketch.</desc>
    <defs></defs>
    <g id="Icon-table-area" stroke="none" stroke-width="1" fill="none" fill-rule="evenodd">
        <path d="M2.89471673,3.17888199 C2.75142825,2.94037267 2.52933111,2.94037267 2.38604263,3.17888199 L1.10361075,5.31354037 C0.881513607,5.69515528 1.03913093,6.33913043 1.36153001,6.33913043 L1.81828425,6.33913043 L1.81828425,12.421118 C1.81828425,13.0770186 3.36040428,13.0770186 3.36040428,12.421118 L3.36040428,6.33913043 L3.92639377,6.33913043 C4.24879285,6.33913043 4.40641017,5.69515528 4.17714861,5.32546584 L2.89471673,3.17888199 Z M23.8490683,20.5996857 C24.0875776,20.4563972 24.0875776,20.2343001 23.8490683,20.0910116 L21.7144099,18.8085797 C21.332795,18.5864826 20.6888199,18.7440999 20.6888199,19.066499 L20.6888199,19.6324884 L14.6068323,19.6324884 C13.9509317,19.6324884 13.9509317,21.1670094 14.6068323,21.1670094 L20.6888199,21.1670094 L20.6888199,21.6313627 C20.6888199,21.9537618 21.332795,22.1113791 21.7024845,21.8821176 L23.8490683,20.5996857 Z M18.25,7.13043478 L3.46428571,7.13043478 C2.56071429,7.13043478 1.82142857,7.8326087 1.82142857,8.69082126 L1.82142857,19.6135266 C1.82142857,20.4717391 2.56071429,21.173913 3.46428571,21.173913 L18.25,21.173913 C19.1535714,21.173913 19.8928571,20.4717391 19.8928571,19.6135266 L19.8928571,8.69082126 C19.8928571,7.8326087 19.1535714,7.13043478 18.25,7.13043478 Z M17.4285714,19.6135266 L4.28571429,19.6135266 C3.83392857,19.6135266 3.46428571,19.2624396 3.46428571,18.8333333 L3.46428571,9.47101449 C3.46428571,9.04190821 3.83392857,8.69082126 4.28571429,8.69082126 L11.6785714,8.69082126 L11.6785714,11.031401 C11.6785714,11.4605072 12.0482143,11.8115942 12.5,11.8115942 L18.25,11.8115942 L18.25,18.8333333 C18.25,19.2624396 17.8803571,19.6135266 17.4285714,19.6135266 Z" id="Combined-Shape" fill="#FFFFFF" fill-rule="nonzero"></path>
    </g>
</svg>