<?xml version="1.0" encoding="UTF-8"?>
<svg width="25px" height="25px" viewBox="0 0 25 25" version="1.1" xmlns="http://www.w3.org/2000/svg" xmlns:xlink="http://www.w3.org/1999/xlink">
    <!-- Generator: Sketch 51.3 (57544) - http://www.bohemiancoding.com/sketch -->
    <title>Icon table category</title>
    <desc>Created with Sketch.</desc>
    <defs></defs>
    <g id="Icon-table-category" stroke="none" stroke-width="1" fill="none" fill-rule="evenodd">
        <path d="M11.15,3.48 C11.54,2.84 12.46,2.84 12.85,3.48 L16.56,9.56 C16.97,10.22 16.49,11.08 15.71,11.08 L8.28,11.08 C7.5,11.08 7.02,10.22 7.43,9.56 L11.15,3.48 Z M17.5,22.08 C15.0147186,22.08 13,20.0652814 13,17.58 C13,15.0947186 15.0147186,13.08 17.5,13.08 C19.9852814,13.08 22,15.0947186 22,17.58 C22,20.0652814 19.9852814,22.08 17.5,22.08 Z M4,21.58 C3.45,21.58 3,21.13 3,20.58 L3,14.58 C3,14.03 3.45,13.58 4,13.58 L10,13.58 C10.55,13.58 11,14.03 11,14.58 L11,20.58 C11,21.13 10.55,21.58 10,21.58 L4,21.58 Z" id="Combined-Shape" fill="#FFFFFF" fill-rule="nonzero"></path>
    </g>
</svg>