<?xml version="1.0" encoding="UTF-8"?>
<svg width="25px" height="25px" viewBox="0 0 25 25" version="1.1" xmlns="http://www.w3.org/2000/svg" xmlns:xlink="http://www.w3.org/1999/xlink">
    <!-- Generator: Sketch 51.3 (57544) - http://www.bohemiancoding.com/sketch -->
    <title>Icon table enter</title>
    <desc>Created with Sketch.</desc>
    <defs></defs>
    <g id="Icon-table-enter" stroke="none" stroke-width="1" fill="none" fill-rule="evenodd">
        <path d="M11.79,16.29 C12.18,16.68 12.81,16.68 13.2,16.29 L16.79,12.7 C17.18,12.31 17.18,11.68 16.79,11.29 L13.2,7.7 C12.81,7.31 12.18,7.31 11.79,7.7 C11.4,8.09 11.4,8.72 11.79,9.11 L13.67,11 L5,11 C4.45,11 4,11.45 4,12 C4,12.55 4.45,13 5,13 L13.67,13 L11.79,14.88 C11.4,15.27 11.41,15.91 11.79,16.29 Z M20,3 L6,3 C4.89,3 4,3.9 4,5 L4,8 C4,8.55 4.45,9 5,9 C5.55,9 6,8.55 6,8 L6,6 C6,5.45 6.45,5 7,5 L19,5 C19.55,5 20,5.45 20,6 L20,18 C20,18.55 19.55,19 19,19 L7,19 C6.45,19 6,18.55 6,18 L6,16 C6,15.45 5.55,15 5,15 C4.45,15 4,15.45 4,16 L4,19 C4,20.1 4.9,21 6,21 L20,21 C21.1,21 22,20.1 22,19 L22,5 C22,3.9 21.1,3 20,3 Z" id="Shape" fill="#FFFFFF" fill-rule="nonzero"></path>
    </g>
</svg>