<?xml version="1.0" encoding="UTF-8"?>
<svg width="25px" height="25px" viewBox="0 0 25 25" version="1.1" xmlns="http://www.w3.org/2000/svg" xmlns:xlink="http://www.w3.org/1999/xlink">
    <!-- Generator: Sketch 51.3 (57544) - http://www.bohemiancoding.com/sketch -->
    <title>Icon table facade</title>
    <desc>Created with Sketch.</desc>
    <defs></defs>
    <g id="Icon-table-facade" stroke="none" stroke-width="1" fill="none" fill-rule="evenodd">
        <path d="M5,6 C5,5.45 5.45,5 6,5 L11,5 C11.55,5 12,4.55 12,4 C12,3.45 11.55,3 11,3 L5,3 C3.9,3 3,3.9 3,5 L3,11 C3,11.55 3.45,12 4,12 C4.55,12 5,11.55 5,11 L5,6 Z M10.61,14.49 L7.65,18.19 C7.39,18.52 7.62,19 8.04,19 L18,19 C18.41,19 18.65,18.53 18.4,18.2 L16.4,15.53 C16.2,15.26 15.8,15.26 15.6,15.53 L13.97,17.71 L11.39,14.49 C11.19,14.24 10.81,14.24 10.61,14.49 Z M18,9.5 C18,8.67 17.33,8 16.5,8 C15.67,8 15,8.67 15,9.5 C15,10.33 15.67,11 16.5,11 C17.33,11 18,10.33 18,9.5 Z M21,3 L15,3 C14.45,3 14,3.45 14,4 C14,4.55 14.45,5 15,5 L20,5 C20.55,5 21,5.45 21,6 L21,11 C21,11.55 21.45,12 22,12 C22.55,12 23,11.55 23,11 L23,5 C23,3.9 22.1,3 21,3 Z M21,20 C21,20.55 20.55,21 20,21 L15,21 C14.45,21 14,21.45 14,22 C14,22.55 14.45,23 15,23 L21,23 C22.1,23 23,22.1 23,21 L23,15 C23,14.45 22.55,14 22,14 C21.45,14 21,14.45 21,15 L21,20 Z M4,14 C3.45,14 3,14.45 3,15 L3,21 C3,22.1 3.9,23 5,23 L11,23 C11.55,23 12,22.55 12,22 C12,21.45 11.55,21 11,21 L6,21 C5.45,21 5,20.55 5,20 L5,15 C5,14.45 4.55,14 4,14 Z" id="Shape" fill="#FFFFFF" fill-rule="nonzero"></path>
    </g>
</svg>