<?xml version="1.0" encoding="UTF-8"?>
<svg width="25px" height="25px" viewBox="0 0 25 25" version="1.1" xmlns="http://www.w3.org/2000/svg" xmlns:xlink="http://www.w3.org/1999/xlink">
    <!-- Generator: Sketch 51.3 (57544) - http://www.bohemiancoding.com/sketch -->
    <title>Icon table map</title>
    <desc>Created with Sketch.</desc>
    <defs></defs>
    <g id="Icon-table-map" stroke="none" stroke-width="1" fill="none" fill-rule="evenodd">
        <path d="M15.297582,4.96738335 L10.0196498,3.12010709 C9.5763035,2.96176912 9.09073374,2.96176912 8.64738744,3.10955122 L4.43559755,4.52403705 C3.58057254,4.81960125 3,5.62184694 3,6.52965128 L3,19.0383506 C3,20.5267274 4.48837688,21.5400904 5.87119511,21.0017413 L8.96406337,19.7983728 C9.19629238,19.70337 9.46018899,19.70337 9.69241801,19.7878169 L14.9703502,21.6350932 C15.4136965,21.7934312 15.8992663,21.7934312 16.3426126,21.6456491 L20.5544024,20.2311632 C21.4094275,19.9461549 21.99,19.1333533 21.99,18.225549 L21.99,5.71684972 C21.99,4.22847285 20.5016231,3.21510987 19.1188049,3.75345895 L16.0259366,4.95682749 C15.7937076,5.0412744 15.5403669,5.05183027 15.297582,4.96738335 Z M15.6670372,19.6505907 L9.33351862,17.4233033 L9.33351862,5.10460959 L15.6670372,7.33189697 L15.6670372,19.6505907 Z" id="Shape" fill="#FFFFFF" fill-rule="nonzero"></path>
    </g>
</svg>