<?xml version="1.0" encoding="UTF-8"?>
<svg width="25px" height="25px" viewBox="0 0 25 25" version="1.1" xmlns="http://www.w3.org/2000/svg" xmlns:xlink="http://www.w3.org/1999/xlink">
    <!-- Generator: Sketch 51.3 (57544) - http://www.bohemiancoding.com/sketch -->
    <title>Icon table place</title>
    <desc>Created with Sketch.</desc>
    <defs></defs>
    <g id="Icon-table-place" stroke="none" stroke-width="1" fill="none" fill-rule="evenodd">
        <path d="M13,4 C9.68285714,4 7,6.73292244 7,10.1119671 C7,13.7529533 10.7885714,18.7734977 12.3485714,20.6856703 C12.6914286,21.1047766 13.3171429,21.1047766 13.66,20.6856703 C15.2114286,18.7734977 19,13.7529533 19,10.1119671 C19,6.73292244 16.3171429,4 13,4 Z M13,12 C11.896,12 11,11.104 11,10 C11,8.896 11.896,8 13,8 C14.104,8 15,8.896 15,10 C15,11.104 14.104,12 13,12 Z" id="Shape-Copy-3" fill="#FFFFFF" fill-rule="nonzero"></path>
    </g>
</svg>