<?xml version="1.0" encoding="UTF-8"?>
<svg width="25px" height="25px" viewBox="0 0 25 25" version="1.1" xmlns="http://www.w3.org/2000/svg" xmlns:xlink="http://www.w3.org/1999/xlink">
    <!-- Generator: Sketch 51.3 (57544) - http://www.bohemiancoding.com/sketch -->
    <title>Icon table price</title>
    <desc>Created with Sketch.</desc>
    <defs></defs>
    <g id="Icon-table-price" stroke="none" stroke-width="1" fill="none" fill-rule="evenodd">
        <path d="M6.35009811,17.4543124 L8.80015094,17.4543124 L8.80015094,19.63642 C8.80015094,19.7425896 8.83284528,19.8295013 8.89862642,19.8974373 C8.96422642,19.9658124 9.04809057,20 9.15024906,20 L10.9767245,20 C11.071517,20 11.1535396,19.9658124 11.2228226,19.8974373 C11.2921057,19.8295013 11.3266415,19.7425582 11.3266415,19.63642 L11.3266415,17.4543124 L16.850083,17.4543124 C16.9520302,17.4543124 17.0359245,17.4205639 17.1016755,17.3521888 C17.1674868,17.2838764 17.2001509,17.1969019 17.2001509,17.0907323 L17.2001509,15.6361298 C17.2001509,15.5305875 17.1674868,15.4430485 17.1016755,15.3751125 C17.0361057,15.3067373 16.9520302,15.2725498 16.850083,15.2725498 L11.3264604,15.2725498 L11.3264604,13.9315817 L15.0452226,13.9315817 C16.5034868,13.9315817 17.6936755,13.4699242 18.6163321,12.5452917 C19.5386264,11.6216315 20,10.4284855 20,8.96579087 C20,7.50406859 19.5386264,6.31089121 18.6163321,5.38629008 C17.6938566,4.46259853 16.5034566,4 15.0452226,4 L9.15006792,4 C9.04787925,4 8.96419623,4.0341562 8.89844528,4.10212359 C8.83284528,4.17046735 8.79996981,4.25797497 8.79996981,4.36354868 L8.79996981,11.5114471 L6.35009811,11.5114471 C6.24793962,11.5114471 6.16422642,11.5473598 6.09847547,11.6193105 C6.03290566,11.6912926 6,11.7765106 6,11.8749645 L6,13.5679703 C6,13.67414 6.03269434,13.7611144 6.09847547,13.8294268 C6.1642566,13.8978019 6.24775849,13.9315504 6.35009811,13.9315504 L8.80015094,13.9315504 L8.80015094,15.2725184 L6.35009811,15.2725184 C6.24793962,15.2725184 6.16422642,15.306706 6.09847547,15.3750811 C6.03290566,15.4430171 6,15.5303679 6,15.6360985 L6,17.0907009 C6,17.1968706 6.03269434,17.283845 6.09847547,17.3521574 C6.16422642,17.4205639 6.24790943,17.4543124 6.35009811,17.4543124 Z M11.3264604,6.42069916 L14.8264755,6.42069916 C15.5993057,6.42069916 16.2226415,6.65546423 16.6967547,7.12515119 C17.1706264,7.59486951 17.4076679,8.20870881 17.4076679,8.96597906 C17.4076679,9.72362569 17.1706264,10.3376532 16.6967547,10.8068069 C16.2226415,11.2769016 15.5992755,11.5116667 14.8264755,11.5116667 L11.3264604,11.5116667 L11.3264604,6.42069916 Z" id="Shape" fill="#FFFFFF" fill-rule="nonzero"></path>
    </g>
</svg>