<?xml version="1.0" encoding="UTF-8"?>
<svg width="25px" height="25px" viewBox="0 0 25 25" version="1.1" xmlns="http://www.w3.org/2000/svg" xmlns:xlink="http://www.w3.org/1999/xlink">
    <!-- Generator: Sketch 51.3 (57544) - http://www.bohemiancoding.com/sketch -->
    <title>Icon table repair</title>
    <desc>Created with Sketch.</desc>
    <defs></defs>
    <g id="Icon-table-repair" stroke="none" stroke-width="1" fill="none" fill-rule="evenodd">
        <path d="M1.75737238,21.6455575 C1.48796992,21.5729809 1.13025418,21.2206673 1.05767758,20.9564321 C0.979933709,20.6609584 0.979933709,16.4479924 1.06284484,16.2095935 C1.15092324,15.9350238 1.30124371,15.758867 1.53447531,15.6292156 C1.74187059,15.5204681 1.82994898,15.5153008 3.22910372,15.4892296 C4.28111213,15.4685606 4.73700593,15.4424894 4.81991706,15.395984 C4.99090659,15.297571 5.09448679,15.1214142 5.09448679,14.9191862 C5.09448679,14.7326949 4.42603046,10.5662343 4.29121179,9.92878154 C4.17212979,9.36390541 4.03731112,9.2032504 3.46726772,8.93901521 C2.92306064,8.68511454 2.76240564,8.51929227 2.72106751,8.151242 L2.69523118,7.92317766 L7.36949314,7.92317766 C11.0694906,7.92317766 12.0385878,7.93867946 12.0385878,7.990587 C12.0385878,8.1667438 11.9143386,8.46221747 11.7743526,8.62287247 C11.5930286,8.83003287 11.478879,8.8664386 10.0538879,9.19291587 C9.14186541,9.40007627 9.04861975,9.43131474 8.91896834,9.57623307 C8.73247701,9.78362834 8.73247701,9.84563553 8.93447014,11.0738007 L9.10029241,12.0687343 L9.49934628,12.0687343 C10.095226,12.0687343 10.0797242,12.042898 10.276785,13.286565 C10.3648634,13.8566084 10.4529418,14.3747443 10.4684436,14.4369864 C10.4839453,14.5043957 10.4529418,14.5873068 10.3855324,14.6547162 C10.297454,14.7427946 10.2145429,14.7634636 9.91390195,14.7634636 C9.71707608,14.7634636 9.55125382,14.7789654 9.55125382,14.7996345 C9.55125382,14.8151363 9.57709015,14.9757913 9.60832862,15.1519481 L9.66540342,15.4784254 L10.9142377,15.5042617 C12.2614849,15.5352653 12.5621258,15.5768383 13.4121411,15.8565753 C13.9615154,16.0430666 14.7854595,16.4214514 15.0290257,16.6079427 L15.2000152,16.7375942 L15.2000152,18.5980448 C15.2000152,20.245933 15.1896807,20.4636628 15.117104,20.5414066 C14.9926199,20.6656559 13.9408464,21.1633576 13.4692159,21.3188453 C13.2411516,21.3965892 12.8578344,21.5053366 12.6142682,21.5675787 C12.1790435,21.6711589 12.0648939,21.6763262 7.06415468,21.6868956 C3.64365939,21.697465 1.89219105,21.6819632 1.75737238,21.6455575 Z M12.0594918,20.5418764 L11.9195058,20.6712929 L7.23490934,20.6712929 L2.54514559,20.6712929 L2.39482512,20.5209725 C2.23417012,20.3603175 2.20833379,20.2151642 2.30674672,20.0338402 C2.43616325,19.7851068 2.25483918,19.7954413 7.23490934,19.790274 L11.9404098,19.790274 L12.064659,19.9199255 C12.2459831,20.0963171 12.2408158,20.3760541 12.0594918,20.5418764 Z M16.3088635,20.4434635 C16.2156179,20.3708869 16.2104506,20.2828085 16.1949488,18.7178315 C16.1846143,17.8109763 16.1949488,17.0180358 16.2104506,16.9557937 C16.2726927,16.6915585 16.3243653,16.681224 17.4541176,16.681224 C18.0344955,16.681224 18.5474641,16.6967258 18.5942044,16.7122276 C18.7496921,16.7744696 19.3455719,17.6139155 19.3455719,17.7797378 L19.3455719,17.924891 L21.5893397,17.924891 C23.7036911,17.924891 23.8434421,17.9300582 23.921186,18.0181366 C24.0560047,18.1632898 24.0456701,19.0649778 23.9160187,19.1840598 C23.8279403,19.2618037 23.5895415,19.2721382 21.5841725,19.2721382 L19.3455719,19.2721382 L19.3455719,19.4172914 C19.3455719,19.5831137 18.7496921,20.4225595 18.5942044,20.4848016 C18.5474641,20.5003034 18.0344955,20.5158052 17.4592849,20.5158052 C16.6353408,20.5158052 16.3917747,20.5003034 16.3088635,20.4434635 Z M2.71096786,5.29069045 C2.71096786,3.60122931 2.71096786,3.58572751 2.83004985,3.40957071 C2.89229192,3.31632504 3.02687572,3.18150637 3.12035626,3.1192643 L3.29651306,3.00018231 L7.33332227,3.00018231 C11.8675983,3.00018231 11.6085304,2.97951324 11.8727656,3.37833224 L12.0127515,3.58549263 L12.0127515,5.27495378 L12.0127515,6.96441492 L7.36432587,6.97991672 L2.71073298,6.99025125 L2.71073298,5.29069045 L2.71096786,5.29069045 Z" id="Combined-Shape" fill="#FFFFFF" fill-rule="nonzero" transform="translate(12.508932, 12.345077) scale(1, -1) translate(-12.508932, -12.345077) "></path>
    </g>
</svg>