<?xml version="1.0" encoding="UTF-8"?>
<svg width="25px" height="25px" viewBox="0 0 25 25" version="1.1" xmlns="http://www.w3.org/2000/svg" xmlns:xlink="http://www.w3.org/1999/xlink">
    <!-- Generator: Sketch 51.3 (57544) - http://www.bohemiancoding.com/sketch -->
    <title>Icon table stage</title>
    <desc>Created with Sketch.</desc>
    <defs></defs>
    <g id="Icon-table-stage" stroke="none" stroke-width="1" fill="none" fill-rule="evenodd">
        <path d="M14,7 L14,5 C14,3.9 13.1,3 12,3 L6,3 C4.9,3 4,3.9 4,5 L4,19 C4,20.1 4.9,21 6,21 L22,21 C23.1,21 24,20.1 24,19 L24,9 C24,7.9 23.1,7 22,7 L14,7 Z M8,19 L6,19 L6,17 L8,17 L8,19 Z M8,15 L6,15 L6,13 L8,13 L8,15 Z M8,11 L6,11 L6,9 L8,9 L8,11 Z M8,7 L6,7 L6,5 L8,5 L8,7 Z M12,19 L10,19 L10,17 L12,17 L12,19 Z M12,15 L10,15 L10,13 L12,13 L12,15 Z M12,11 L10,11 L10,9 L12,9 L12,11 Z M12,7 L10,7 L10,5 L12,5 L12,7 Z M21,19 L14,19 L14,17 L16,17 L16,15 L14,15 L14,13 L16,13 L16,11 L14,11 L14,9 L21,9 C21.55,9 22,9.45 22,10 L22,18 C22,18.55 21.55,19 21,19 Z M20,11 L18,11 L18,13 L20,13 L20,11 Z M20,15 L20,17 L18,17 L18,15 L20,15 Z M1.89471673,11.178882 L3.17714861,13.3254658 C3.40641017,13.6951553 3.24879285,14.3391304 2.92639377,14.3391304 L2.36040428,14.3391304 L2.36040428,20.421118 C2.36040428,21.0770186 0.818284254,21.0770186 0.818284254,20.421118 L0.818284254,14.3391304 L0.361530009,14.3391304 C0.039130933,14.3391304 -0.118486393,13.6951553 0.103610748,13.3135404 L1.38604263,11.178882 C1.52933111,10.9403727 1.75142825,10.9403727 1.89471673,11.178882 Z" id="Combined-Shape" fill="#FFFFFF" fill-rule="nonzero"></path>
    </g>
</svg>